<svg width="24" height="24" viewBox="0 0 24 24" fill="none" xmlns="http://www.w3.org/2000/svg">
<path d="M20 8.22485L14 3.22485H7C5.34315 3.22485 4 4.568 4 6.22485V18.2249C4 19.8817 5.34315 21.2249 7 21.2249H17C18.6569 21.2249 20 19.8817 20 18.2249V8.22485Z" fill="#6A7CF0"/>
<path d="M15.2652 9.226C14.622 9.36203 14.0117 8.90265 14.0117 8.28245L14.0117 3.22481L20.0001 8.22461L15.2652 9.226Z" fill="#FBFBFB"/>
<path d="M11.7147 8.87812C11.8045 8.60172 12.1955 8.60172 12.2853 8.87812L13.0552 11.2476C13.0954 11.3712 13.2106 11.4549 13.3405 11.4549H15.832C16.1226 11.4549 16.2434 11.8268 16.0083 11.9976L13.9927 13.4621C13.8875 13.5384 13.8435 13.6739 13.8837 13.7975L14.6536 16.167C14.7434 16.4434 14.4271 16.6732 14.192 16.5024L12.1763 15.0379C12.0712 14.9616 11.9288 14.9616 11.8237 15.0379L9.80804 16.5024C9.57293 16.6732 9.25659 16.4434 9.34639 16.167L10.1163 13.7975C10.1565 13.6739 10.1125 13.5384 10.0073 13.4621L7.99169 11.9976C7.75657 11.8268 7.87741 11.4549 8.16802 11.4549H10.6595C10.7894 11.4549 10.9046 11.3712 10.9448 11.2476L11.7147 8.87812Z" fill="white"/>
</svg>
